PathFileType	4	(X/Y/Z)	path1_07_0-560.trc
DataRate	CameraRate	NumFrames	NumMarkers	Units	OrigDataRate	OrigDataStartFrame	OrigNumFrames
30	30	9	22	m	30	490	560
Frame#	Time	Hip			RHip			RKnee			RAnkle			RBigToe			RSmallToe			RHeel			LHip			LKnee			LAnkle			LBigToe			LSmallToe			LHeel			Neck			Head			Nose			RShoulder			RElbow			RWrist			LShoulder			LElbow			LWrist		
		X1	Y1	Z1	X2	Y2	Z2	X3	Y3	Z3	X4	Y4	Z4	X5	Y5	Z5	X6	Y6	Z6	X7	Y7	Z7	X8	Y8	Z8	X9	Y9	Z9	X10	Y10	Z10	X11	Y11	Z11	X12	Y12	Z12	X13	Y13	Z13	X14	Y14	Z14	X15	Y15	Z15	X16	Y16	Z16	X17	Y17	Z17	X18	Y18	Z18	X19	Y19	Z19	X20	Y20	Z20	X21	Y21	Z21	X22	Y22	Z22
491	16.366666666666667	-1.9830236322583459	0.7837203803722557	1.0149407993499144	-2.0097134342895733	0.7609162613897265	0.9137622855870244	-2.1143069346847	0.41935961393420845	0.907983151776085	-2.2059613961050757	0.062050130239048894	0.921638646668244	-2.456146440925704	-0.0015477553898502324	0.9468019235803308	-2.428117367201962	-0.011870693586446334	0.8983901752238497	-2.2456038929774356	-0.012315244159621543	0.9466417722404639	-1.9630233049060264	0.7552385763439908	1.1006194040856614	-1.8849027318564013	0.40515701734613857	1.0864334495172656	-1.6656100163854513	0.12919265906223631	1.0626632810732066	-1.8065519273669028	-0.009891670023220667	1.111058705311539	-1.7144774745153946	0.0023418849196254346	1.1428652219716005	-1.5899582475850256	0.09945680772705877	1.033633219439432	-1.973107097121131	1.4005497402718865	0.9980969384895992	-2.1005101681629736	1.673988621098028	0.96296090831134	-2.1211176267038976	1.4808890458139057	0.8949912633368742	-1.9201028445248907	1.321292689380427	0.8204058037434989	-1.8643724597393323	1.0323545288739562	0.7941318160038333	-1.9116290453254319	0.7820980584137627	0.7665684431649025	-1.9523902103118829	1.295585852483233	1.1997889239179815	-1.9939791757521914	1.026138375287914	1.2606739320246094	-2.182748639423314	0.8320470498160231	1.2544229965983549
492	16.4	-2.0175240363860625	0.7817339160154583	1.0091940238655621	-2.0449963631195263	0.7582350459725525	0.9093124597027356	-2.1390746653562807	0.41694943458734707	0.9066089331083489	-2.213021321432769	0.05590935804141449	0.9247869968167551	-2.4639522786478736	-0.022296294706533135	0.9510689264108442	-2.4328071942129434	-0.027585134514355163	0.9010631575032664	-2.2464435338703534	-0.01579876361461581	0.9498790632486062	-1.9983253595392723	0.7535566160844008	1.0939456030590293	-1.9295183611810838	0.405413033099142	1.0829929698076373	-1.6915968503306995	0.14971598802461952	1.0601280104411788	-1.8055152693518903	-0.013122827348172314	1.1076183938786077	-1.7318860228501896	0.003917748772878472	1.1399425421626683	-1.6206587577673763	0.1245378979802998	1.0309325060914933	-2.004925946672793	1.3992320332244559	0.9914044154724274	-2.128132123102918	1.6675719286962458	0.9195573337287325	-2.160065719238188	1.4850893030409582	0.8986852541750162	-1.9555668048010288	1.3218250432525438	0.8119641293391822	-1.9005378015632242	1.0286024984308233	0.7891491311342858	-1.9531954389949593	0.7789227374543969	0.7630873525816328	-1.9810226221425649	1.2960544286995561	1.195454481867519	-2.0149689876318804	1.0234891688692362	1.252515370251042	-2.1847624528174303	0.8267559466917046	1.2513382502986357
493	16.433333333333334	-2.0497848996366965	0.7820625453300666	1.0031031034153173	-2.0776870174927984	0.7572722534773199	0.9043299259270584	-2.1602057580049423	0.4158285939908717	0.9046608365480877	-2.2172141885694723	0.04963992252115222	0.9276755106669999	-2.4604808834343226	-0.040941584024997306	0.9521448942244636	-2.426882351267409	-0.04202748587502469	0.9020569015465778	-2.2396799758663635	-0.01890409698576886	0.9506746533553677	-2.031806264991291	0.7535947258077753	1.0868746020112359	-1.9798073594494618	0.40718780315685	1.0798257190839649	-1.7293818225746538	0.16957925047580777	1.0578374411368163	-1.8118943216545775	-0.01639866110994486	1.1030590046284112	-1.7550212155178566	0.007738385040660894	1.1372370859319354	-1.6601980475187768	0.14802759758770892	1.0270516758002697	-2.0350095193159614	1.3995306790056796	0.9842849426858055	-2.1542894893435625	1.6620645173305628	0.8707121054032794	-2.200089030977254	1.491920235704212	0.908050689607289	-1.9889680597530388	1.3224136748982156	0.8047468510657919	-1.9370317216285842	1.0269862014787465	0.7834628807083492	-1.9953526558580634	0.7779102360057534	0.7594094382936386	-2.0074941939279745	1.298211463697842	1.1897032266828143	-2.0372635031641395	1.0243514177322994	1.243712608042807	-2.1829480112723396	0.8224760920166411	1.2495966050918776
494	16.466666666666665	-2.0794706192816874	0.7845453144798732	0.9972461651925838	-2.1071869334939883	0.7584985371686709	0.8993375663039797	-2.177452802673056	0.4163375854581796	0.9026226773082554	-2.2193241853624697	0.04433089380199204	0.9298061379635983	-2.44961247529917	-0.0541802612324177	0.9512184877004652	-2.414368148950578	-0.05407206135743616	0.904200664710985	-2.226786267120432	-0.020642183178826018	0.9485259900924985	-2.0630387699665613	0.7556407487339725	1.0801899629632428	-2.033284561017263	0.4100986803670953	1.0774483960383732	-1.7770329522055608	0.18545716047760866	1.0560068975373869	-1.8324049485604572	-0.0185292302039525	1.0983365256116737	-1.7865570465277825	0.014320260112304138	1.134852273962768	-1.7072402648213953	0.16520582253532745	1.023236324106394	-2.0630185310547695	1.402073798006309	0.9783920575821512	-2.1805399512956525	1.658781648026863	0.8262237307171789	-2.239980727823467	1.500250304422685	0.9215149566290516	-2.018738661211156	1.3226696933734803	0.800109343078172	-1.9729807772335488	1.027600665327614	0.7774337822665429	-2.0370627833142465	0.7788562452651968	0.7557886555514888	-2.03163927670756	1.3014030648267654	1.183770785494417	-2.0606668645197725	1.0280210460488208	1.2351046751013803	-2.183105052292082	0.8189430029108671	1.2490470897774377
495	16.5	-2.106761737600377	0.7886203055800166	0.9919917468058381	-2.13343757850699	0.7617789668195385	0.8947831931605497	-2.1911235403558145	0.4184954931065806	0.9007240337340654	-2.2200365763455823	0.041283533430932544	0.9305048873009609	-2.4369708085888755	-0.059852155926044474	0.9485989926284041	-2.3999259558519173	-0.06346064800076293	0.9090619331200905	-2.2106772500329117	-0.020106268981938593	0.9435437917107022	-2.091954469631146	0.7594795319553922	1.07440744936239	-2.0861434181985397	0.4136648390257995	1.0759319978348778	-1.8305991091291198	0.1944999462308153	1.0547285008513356	-1.8709480076056644	-0.01907440672573109	1.0947077554241662	-1.829042259210719	0.02219975563856851	1.1332293889585277	-1.7590532148603664	0.17157708828538915	1.0214016127351075	-2.088568941650525	1.4069190961092304	0.9747840723547713	-2.20804295979409	1.6582918768520714	0.795043413658635	-2.278549050151316	1.5090558780422305	0.9374880671574608	-2.044436611831944	1.3225667995187476	0.7984902460821278	-2.0075540336232196	1.0302276105689763	0.7714240470020691	-2.0772699087763584	0.7814353014997869	0.7523238899079593	-2.0535611258952917	1.3051030362340177	1.1785100385029086	-2.0837450698508233	1.033450217986209	1.2275044404616597	-2.188432642313235	0.8161805246851535	1.2493158411385403
496	16.533333333333335	-2.1319602092232377	0.7934765481846849	0.9874451541861413	-2.1567200366308903	0.7662110346463132	0.8909461881441334	-2.2018286422614226	0.4218305093717265	0.8990569530790123	-2.219955738167955	0.04135464849156037	0.9294924528181414	-2.4276729129302854	-0.05825699062282923	0.9440341555604087	-2.387257680205386	-0.06985682729146286	0.915476472253424	-2.1952184291300068	-0.017172386508684818	0.9368256094600559	-2.1184594007647197	0.7642751478124744	1.069593190395502	-2.133072977438396	0.4176166554125272	1.0747591546434923	-1.8857423737676615	0.19502807760436253	1.0541362897669702	-1.926731384934969	-0.01851941276973517	1.0934069460312064	-1.8832189612424592	0.028296391423960846	1.1331440462235125	-1.812977526258917	0.16466349791506601	1.0232862493209176	-2.111188740673929	1.413323962375995	0.9735289761324156	-2.237065811528654	1.6603516303067614	0.7826559331972789	-2.3143919494393725	1.517252803471396	0.9535213586178181	-2.0671257687879843	1.3226819279443414	0.7991931710328436	-2.0400255785006927	1.0344121467160021	0.7656649408401103	-2.114960686036892	0.7853807942419776	0.7489908976253009	-2.0734412631320507	1.3089884487044443	1.1741628434595135	-2.1045117770461164	1.039551558845056	1.2213620409797916	-2.1979656690623997	0.814609766200175	1.2498596356494045
497	16.566666666666666	-2.1551962993284466	0.7982995706023129	0.9835654546438066	-2.1774393550478113	0.7705800778315093	0.8879654991936452	-2.2102802977622034	0.4255964435993452	0.8977754653668485	-2.2195763202257965	0.04432596327089266	0.9272735553693598	-2.4238549297511733	-0.05204809195611668	0.9380421851891433	-2.378291427761211	-0.07258725874090123	0.9204680054766072	-2.1832750665930005	-0.012775861542028541	0.9302523243055718	-2.1422885003266683	0.7689579742718755	1.0655782690262063	-2.1688373383962194	0.42187819735097837	1.0733111625717833	-1.9393167434618455	0.18679811703116714	1.0545595010570428	-1.9950483947031488	-0.017681333376444255	1.095202451904418	-1.9479901881623496	0.02951360890886537	1.1351052465544758	-1.867703073565168	0.14549375027069372	1.0295381282107767	-2.130711465913611	1.4200634164631103	0.974001528999543	-2.26737762159227	1.6644393732927514	0.7911655560269286	-2.3464018105893127	1.5239406821057178	0.9673579751891963	-2.0887092516687114	1.3238016377736166	0.800821551664815	-2.0698406546040817	1.0395000312106177	0.7602226489932546	-2.1493107483947522	0.79033581938302	0.7457482936935707	-2.091491526112588	1.3128328001216012	1.1705553681204417	-2.1217361357989692	1.0454234893088838	1.216710646897128	-2.208456425081307	0.814558345617681	1.2500694224017366
498	16.6	-2.1764200264281923	0.8024613914035367	0.9803027531280785	-2.195946712354418	0.7739888071916805	0.8858694086727106	-2.2171839464394507	0.42911792183836023	0.8971102722838088	-2.219265524342861	0.04893463089326489	0.9248497719859918	-2.424434506977857	-0.04475471452300808	0.9322465973804893	-2.3731694140158623	-0.0716488301487865	0.9216771354861928	-2.1757477224939805	-0.008400904901143473	0.9256654185484239	-2.163259855114916	0.7727258324677321	1.0622631812133498	-2.191584724768442	0.42609396791237586	1.071516439392649	-1.9899132350049697	0.17097278330284046	1.0564534978173272	-2.0695335276273776	-0.01702626496704122	1.0999138187652646	-2.0204177826586105	0.024600470648129324	1.1387964288698753	-1.922575765635005	0.11828790854130175	1.0392708854269739	-2.147767704194509	1.4260108083426286	0.9753758116438924	-2.2984171464960634	1.6699142988999043	0.8179805894809141	-2.3744555855864604	1.5288933746724918	0.9783130168649383	-2.1103552746278997	1.3261740371772954	0.8022366405809597	-2.096652437371225	1.044683979656033	0.7550965950759709	-2.179779451815165	0.7956676729734108	0.7426082671954444	-2.1080068709956508	1.3163621257129734	1.1674620713894976	-2.135483779789777	1.050427075611032	1.2133320612398824	-2.217289450818778	0.815861304262156	1.249499560677771
499	16.633333333333333	-2.1956106120029064	0.8055960008335352	0.9776514112732794	-2.212482218104099	0.7760756499088444	0.8846080822840461	-2.2231759176092734	0.43195861268224944	0.8971940362525558	-2.21925372597526	0.05363213008310529	0.922961551972252	-2.426829890771855	-0.03882164433003194	0.9280477011417663	-2.370772945517548	-0.06793953381942991	0.9183192016074346	-2.1722096150064933	-0.005175595330482848	0.9239262624950342	-2.1816921973837835	0.7751935482662392	1.0597153766596026	-2.2046324717611077	0.42934160675268956	1.0699352597651133	-2.037422307360629	0.14983634556314526	1.0601028273487256	-2.1441045620128403	-0.01659714973655684	1.1063773106119155	-2.0954427252003964	0.014972685732768573	1.1433000965985425	-1.9761770863034047	0.08844326791982236	1.0503084856695948	-2.1635055891997306	1.4305042441946163	0.9769568807442259	-2.3287432979178297	1.6757642195086286	0.8543666470334672	-2.3991953570988267	1.5324127228211837	0.9865236711442076	-2.1317887448461095	1.3293728016256585	0.8030268067193924	-2.120280443232615	1.0492225818667442	0.7503524307788756	-2.2060317877068223	0.8006261295096442	0.7395987624427516	-2.123382801607215	1.3192421158085594	1.1648196068994547	-2.146615788071475	1.0542415772029472	1.2109161410851437	-2.223672246237976	0.817962234656162	1.2480232427123017
